<svg id="圖層_1" data-name="圖層 1" xmlns="http://www.w3.org/2000/svg" viewBox="0 0 16 16"><title>13</title><path d="M7,0H8.86l.23.08a7.89,7.89,0,0,1,6.54,5.63A18.24,18.24,0,0,1,16,7.64V8.3c-.11.09-.06.21-.07.31A8,8,0,1,1,0,7.13a7.34,7.34,0,0,1,2.21-4.7A7,7,0,0,1,6.89.07C6.94.07,7,0,7,0Zm3.69,3.6a5.43,5.43,0,0,0-.18-1.74.65.65,0,0,0-1.19-.24,1.17,1.17,0,0,0-.29.59,15.26,15.26,0,0,0-.32,3.16C8.75,6.26,9,7.13,9,8a.78.78,0,0,1-.73.89,1.17,1.17,0,0,1-1.37-.67A3.33,3.33,0,0,1,6.61,7a16.42,16.42,0,0,1,.3-3.83A7,7,0,0,0,7.05,1,.6.6,0,0,0,6.58.42,1.51,1.51,0,0,0,4.93,1.49,4.58,4.58,0,0,0,5,3.1a13.83,13.83,0,0,1-.33,5.76,9.35,9.35,0,0,0-.38,3.72c.12,1,.38,2,1.53,2.32a6.38,6.38,0,0,0,3.44,0,1.65,1.65,0,0,0,1.3-2,23.39,23.39,0,0,1-.17-2.9C10.4,8,10.65,5.91,10.72,3.6Z"/><path d="M7.3,13c-.4.69-.59.8-1,.62-.08,0-.22-.05-.19-.16s.16-.06.23,0c.38.16.57,0,.71-.34a2.09,2.09,0,0,1,.13-.35.24.24,0,0,1,.14-.12c.1,0,.15.06.17.14s.06.3.1.45c.11.44.21.49.61.31.07,0,.14-.13.21,0s0,.13-.1.18a.49.49,0,0,1-.84-.25C7.39,13.34,7.36,13.21,7.3,13Z"/><path d="M6.35,11.29c0,.21-.16.33-.37.31a.29.29,0,0,1-.29-.33A.28.28,0,0,1,6,11C6.22,11,6.31,11.1,6.35,11.29Z"/><path d="M9,11.2a.31.31,0,0,1,0,.62.29.29,0,0,1-.33-.33C8.64,11.29,8.77,11.2,9,11.2Z"/></svg>