<svg xmlns="http://www.w3.org/2000/svg" viewBox="0 0 96 76.91"><defs><style>.cls-1{fill:#333;}</style></defs><title>資產 15</title><g id="圖層_2" data-name="圖層 2"><g id="圖層_1-2" data-name="圖層 1"><path class="cls-1" d="M96,51.22c-.13,3.35,0,6.73-.45,10.05s-2.47,5-5.93,4.38c-2.71-.5-3.55.59-4.11,3.2-.68,3.16-1.26,7-5.63,7.47s-7-2.26-8.76-5.47c-1.31-2.46-2.71-3-5.2-3-11.51-.19-23-1.45-34.51.54-1.88.33-3,.9-3.59,2.86-1.93,6.27-8.62,7.84-12.24,2.33-2.8-4.26-5.95-5.76-10.64-6.1C1.86,67.22-.14,65.08,0,61.66.19,57.45.15,53.2.73,49A9.32,9.32,0,0,1,6,41.77a11.23,11.23,0,0,0,6.64-9.09c1.63-10.15,7.19-16.23,17.72-17.17,1.48-.13,2.45-.59,2.07-2.35s-.75-3.71-3.34-3.38C21.84,10.69,14.6,11.65,8,15.15c-1.14.61-2.36,2.36-3.6.67S4.8,13,6.08,12.14c1.51-1,3-2.34,4.71-2.75,4.29-1,3.11-3.08,1.22-5.24-.81-.92-2.38-1.42-1.41-3S13-.17,14.4.36c1.82.71,4.34,1.14,5.2,2.53,2.27,3.68,5.46,3.07,8.74,2.9,9.84-.49,19.75-.88,29.53-.61a145.73,145.73,0,0,1,29.6,4.18c2,.49,4.16.66,6.22,1.1,1.06.22,2.47.43,2.1,2-.32,1.39-1.56.9-2.47.76-4.46-.66-8.9-1.39-13.35-2a33.83,33.83,0,0,0-4.61-.36c-2.06,0-2,1.6-2.1,3s.61,2.06,2,2c1.12,0,2.26.07,3.37,0,6.44-.59,10.15,1.55,12,7.71C93.42,32.55,95.66,41.7,96,51.22ZM19.66,24c3.71-1.31,7.19.3,10.71.3,2.88,0,4.79,1.36,4.11,4.42-1,4.26,3.58,10.45-3.67,12.47a28.2,28.2,0,0,1-13.39,0c-4.7-1-7.79,1.45-11.1,3.65-1.34.89-2.16,1.92-.18,3.87,3.6,3.55,2.35,9.71-2,12.45a1.79,1.79,0,0,0-1,2A2,2,0,0,0,5.27,64.8c3.58.18,7.08.94,9.06-3.69,1.33-3.11,4.51-4.51,8.11-4.17a7.24,7.24,0,0,1,7,6.29c.51,2.72,2.06,2.46,4,2.23C43.2,64.31,53,64.6,62.87,65.2c3.79.23,6.63.23,8.08-4.38a8.85,8.85,0,0,1,9.36-6.46c4.41.21,6.45,2.93,7.18,6.94a2.24,2.24,0,0,0,2.66,2.08,2.75,2.75,0,0,0,2.54-1.89c.65-1.62-.3-2-1.53-2.8a4.38,4.38,0,0,1,.32-7.78,2.73,2.73,0,0,0,1.62-3,99.52,99.52,0,0,0-5.37-24.26c-1.69-4.67-4.24-5.85-9.16-5a27.08,27.08,0,0,1-6.73.23,292.25,292.25,0,0,0-41.32-.5C26.19,18.68,22.25,20,19.66,24ZM43.26,8.66c-.83.08-1.39.15-1.95.19-1.94.15-4-.15-3.93,3,0,3.36,2.16,2.9,4.29,3,7.59.2,15.18.42,22.76.75,2,.09,3.72.31,3.86-2.42.12-2.45-1.47-3.27-3.42-3.39C57.58,9.29,50.29,9,43.26,8.66ZM79.63,67.11a3.22,3.22,0,0,0-3.35-3c-1.54-.06-1.74,1.19-1.69,2.31.07,1.87,1.43,2.6,3.06,2.76C79,69.35,79.67,68.55,79.63,67.11ZM22.28,66c-.13-.69-.44-1.41-1.53-1.29a2.82,2.82,0,0,0-2.81,2.57c-.14,1.37,1,1.48,2,1.44C21.49,68.65,22.05,67.57,22.28,66Z"/><path class="cls-1" d="M52,41c-9.5.22-9.52.22-9.7-8.69,0-1.54.07-3.09.19-4.62a3.18,3.18,0,0,1,3.55-3.28c5.18-.05,10.36.27,15.46-1.15,1.89-.53,3,.28,3.35,2.56.52,3.81-.64,7.51-.28,11.3.15,1.6-1.12,2.42-2.72,2.64C58.4,40.24,55,41.36,52,41Z"/><path class="cls-1" d="M39.82,61.82A16,16,0,0,1,37.34,50.4c.43-2.86-.44-3.61-3.29-3.69-6.63-.19-13.19.67-19.78.81-1.3,0-3.5.72-3.64-1-.17-2.14,2.09-1.17,3.29-1.23,6.32-.33,12.63-.9,19-.62,4.57.2,5.39-.91,5.06-5.48-.39-5.48-1.19-10.95-.57-16.44.13-1.15-.7-3.5,1.48-3.14,1.59.27,1.73,2.6,1.36,4-1.4,5.47-.37,10.91-.3,16.38,0,3.49,1.34,4,4.52,4,12,.24,23.91.23,35.73-2.14.35-.07.77.2,1.51.42-1.5,2.31-3.82,2.27-5.86,2.6-10.61,1.71-21.31,1.65-32,1.2C40.47,46,39.19,47,39.4,50.3S39.66,57.16,39.82,61.82Z"/><path class="cls-1" d="M68.31,30.91c.08-7.39.51-7.75,8.16-6.92A8.77,8.77,0,0,1,84,35.89a2.73,2.73,0,0,1-2.09,1.84c-1.5.37-3,.7-4.52,1C69,40.21,68.22,39.56,68.31,30.91Z"/></g></g></svg>