<svg xmlns="http://www.w3.org/2000/svg" viewBox="0 0 592.45 64.89"><defs><style>.cls-1{fill:#231815;}</style></defs><title>資產 5</title><g id="圖層_2" data-name="圖層 2"><g id="圖層_1-2" data-name="圖層 1"><path class="cls-1" d="M24,15.21c-.1,1-.49,1.25-1.55,1.24-.87.08-1.63.07-2.5.16s-1.34-.4-1.24-1.37a11.92,11.92,0,0,0-.4-6.36,1.78,1.78,0,0,0-1.23-1.37,9.18,9.18,0,0,0-5.57-.36A2.34,2.34,0,0,0,9.86,8.77a9.77,9.77,0,0,0-.61,3.37,10.93,10.93,0,0,0,1.17,5.51,50.47,50.47,0,0,0,4.24,7.19,23.67,23.67,0,0,0,2,2.14,6.63,6.63,0,0,1,1.23,1.65,27.27,27.27,0,0,0,2.84,3.7,21,21,0,0,1,4.6,8.83,18.56,18.56,0,0,1-.8,10.7A15.85,15.85,0,0,1,22,56.35a12.11,12.11,0,0,1-4.37,3.32,8.66,8.66,0,0,1-5.11,1A11.72,11.72,0,0,1,5,58.07a18.36,18.36,0,0,1-2.28-2.44,13.59,13.59,0,0,1-1.32-2,6.75,6.75,0,0,1-.56-1.15,15.94,15.94,0,0,1-.71-4.74C.07,46.54,0,45.38,0,44.12c0-.67.2-.76.87-.75.49,0,.87.1,1.35.11l2.89,0a7,7,0,0,1,1.44-.08c.48.1.76.39.56.77-.29.58,0,1.16,0,1.64C7,46.91,7.07,48,7.05,49a19.16,19.16,0,0,0,.36,2.23A2.53,2.53,0,0,0,9,53.3a7.26,7.26,0,0,0,3.74,1,18.29,18.29,0,0,0,3.18-.64,2,2,0,0,0,.78-.76A29.55,29.55,0,0,0,18.39,50a6.09,6.09,0,0,0,.05-4.33,19.55,19.55,0,0,0-2.33-5.43c-.76-1.17-1.51-2.43-2.27-3.7a8.83,8.83,0,0,0-.56-.87c-1-1.55-2.18-3-3.21-4.57C8.65,29,7.14,26.76,5.82,24.53A41,41,0,0,1,3.29,19.1a16.39,16.39,0,0,1-1.34-8,17,17,0,0,1,2.2-6.63A9.13,9.13,0,0,1,7.08,1.31c.29-.19.67-.57,1-.76A3.93,3.93,0,0,1,10.36,0,33.84,33.84,0,0,1,16.6.56a17.85,17.85,0,0,1,5.64,2.68A4.77,4.77,0,0,1,23.75,6a19.73,19.73,0,0,1,.5,5.8A21.19,21.19,0,0,1,24,15.21Z"/><path class="cls-1" d="M107,2.29a7.45,7.45,0,0,0,2-.46c.58-.09.86,0,1,.59.09.87.27,1.84.35,2.71,0,1.83.34,3.66.22,5.59a13.84,13.84,0,0,0,.08,2c-.12,1.34-.23,2.79-.35,4.14a54,54,0,0,0-.16,5.69,100.34,100.34,0,0,1-.14,10.69c-.12,2-.24,4.14-.46,6.17-.11,1.15-.32,2.21-.43,3.37a9.54,9.54,0,0,0-.11,1.64,27.82,27.82,0,0,1-1,6.34,21.42,21.42,0,0,1-1.8,4.9,13.94,13.94,0,0,1-2.24,3.05,3.83,3.83,0,0,1-.68.38,13.55,13.55,0,0,1-7.53,1.93,18.64,18.64,0,0,1-4.12-.63,9.79,9.79,0,0,1-5.43-4.21,18.39,18.39,0,0,1-1.94-6.39,50.55,50.55,0,0,1-.48-7.62c-.07-1.64-.25-3.28-.32-4.92-.06-2.89-.22-5.88-.28-8.78-.14-3.76-.19-7.42-.24-11.18,0-3,.07-6,.2-8.87,0-1.64-.24-3.57-.12-5,0-.38-.09-.77.29-.76l4.24.05,1.53,0c.67.1.77.1.76.78.07,1.64,0,3.18,0,4.82,0,.68,0,1.25,0,1.93,0,2.22,0,4.53,0,6.75s0,4.63,0,6.94c.08,1.35.16,2.8.24,4.15,0,2.79-.07,5.59-.1,8.29,0,1.25,0,2.5,0,3.66,0,1.54.06,3.09.14,4.63.08,1.35.06,2.7.24,4.05a19.92,19.92,0,0,0,1,4A5.46,5.46,0,0,0,92.93,55a3,3,0,0,0,2.69.41l1.15-.27a4.78,4.78,0,0,0,3.12-2.66,13,13,0,0,0,1.31-5c0-.86.31-1.73.41-2.6.23-2.79.55-5.48.88-8.18l.33-4c0-2.21.06-4.43.18-6.64,0-1.74.15-3.57.17-5.4,0-3.66-.1-7.42-.15-11.09,0-3.09-.32-5.4-.11-7C104.45,2.35,105.7,2.37,107,2.29Z"/><path class="cls-1" d="M190.2,30.53c.67.68,1.33,1.26,1.9,1.95a11.79,11.79,0,0,1,2.06,4.26,26.56,26.56,0,0,1,1.22,10.33c0,1.16-.13,2.41-.24,3.67a18,18,0,0,1-.22,2.4c0,1.16,0,2.22-.14,3.37-.12,2-.34,4.15-.56,6.26,0,.49-.2.77-.78.77-2,.16-3.94.24-6,.31-.19.09-.39,0-.68,0,0-.39-.08-.77-.08-1.16a22.58,22.58,0,0,0,.46-5.68,68.38,68.38,0,0,0,0-7.71c-.15-3.19-.4-6.28-.84-9.46a12.81,12.81,0,0,0-1.2-4.26c-.75-1.55-1.79-2.82-3.81-2.84a23.92,23.92,0,0,0-6.93.59,12.4,12.4,0,0,0,0,1.83c0,1.35.07,2.6.15,3.85,0,1.55,0,3-.06,4.53,0,.49,0,.87,0,1.35l-.06,4.63c0,.48,0,1,0,1.54a39,39,0,0,0-.28,6.65,15.2,15.2,0,0,1,0,3.09c0,1-.2,1.15-1.16,1.24s-1.93.16-3,.34c-.38,0-.77.09-1.15.09-.2.09-.39,0-.58,0a7.3,7.3,0,0,1-.08-1.35c-.15-2.9-.21-5.89-.37-8.78-.22-5.4,0-10.8.11-16.2.13-2.79.36-5.58.49-8.38.22-2.4.44-4.71.66-7.12.22-1.93.34-3.95.46-5.88.22-2.4.44-4.81.57-7.22a34.63,34.63,0,0,0,0-4.44,6.52,6.52,0,0,0,.88-.76,1.35,1.35,0,0,1,.86-.28c1.74-.26,3.57-.43,5.4-.6.38,0,.76-.09,1.15-.08A15.13,15.13,0,0,1,184.5,2,8.11,8.11,0,0,1,189,4.77a11,11,0,0,1,2,3.59,19,19,0,0,1,.88,6.57c-.11,1.34-.13,2.69-.15,3.95a5,5,0,0,1-.21,1.25c-.2,1.15-.5,2.4-.81,3.65a4.84,4.84,0,0,1-.49,1l-2.34,2.57a6.13,6.13,0,0,1-.78.86A7.71,7.71,0,0,1,190.2,30.53Zm-11.76-4.78c1.25-.27,2.5-.64,3.76-1a1.79,1.79,0,0,0,1-.67,10.57,10.57,0,0,0,1.8-5.85,35.82,35.82,0,0,0-.6-5.32,12.27,12.27,0,0,0-1-3.48,5.53,5.53,0,0,0-2.95-2.54c-1.34-.5-2.69-.32-4-.53a5.13,5.13,0,0,0-1.25,0c-.14,3.28-.18,6.55-.41,9.83s-.18,6.46,0,9.93C175.93,25.91,177.18,25.93,178.44,25.75Z"/><path class="cls-1" d="M270.59,32.31l.19.2c.18,1.25.26,2.6.34,3.86.08.87-.21,1.05-1,1-1.34,0-2.59.07-3.94.15l-3.56-.05c-1.15.09-2.4.17-3.65.15a3.72,3.72,0,0,1-1.06.18c0,1.16-.13,2.31-.05,3.37s.08,2,.06,3c.06,2.9,0,5.69.09,8.59,0,2,0,4,0,6.07,0,1.06.07,2,.15,3.18-1.83.36-3.57,1.4-5.68.9,0-.87,0-1.65,0-2.51,0-1.74,0-3.38.06-5.11s-.05-3.37-.13-5c0-1,.12-1.92.13-2.88-.05-3.28,0-6.66,0-9.94,0-1.54,0-3.08,0-4.72,0-1.16.12-2.31.13-3.47,0-2.31.16-4.53.09-6.84-.05-3.09.18-6.17.41-9.25.22-2.79.06-5.59.2-8.39l0-2.31c0-.48.2-.77.68-.76L260,1.52c2.21-.07,4.42,0,6.63,0,1.92-.07,3.85.05,5.77.07,1,.11,1.05.2,1,1.17s0,1.83.06,2.8c0,.28-.1.67-.11,1a12.63,12.63,0,0,0-1.73,0c-1.73.08-3.55.15-5.38.13-1.64,0-3.27.25-4.81.23a8.3,8.3,0,0,0-2.7.25.38.38,0,0,0-.29.09,21.49,21.49,0,0,0-.73,5,39.19,39.19,0,0,0-.16,4.72c0,1.64,0,3.38,0,5,0,1.15,0,2.31.06,3.47,0,2.12,0,4.24,0,6.36a1.11,1.11,0,0,0,.09.48C262.13,32.3,266.46,31.87,270.59,32.31Z"/><path class="cls-1" d="M336.83,9a15.9,15.9,0,0,0-5.2.51h-.57c-.29,0-.48-.2-.48-.58.12-1.64.24-3.28.26-4.92,0-.19-.1-.38,0-.57a.46.46,0,0,1,.59-.48,6.64,6.64,0,0,0,2.4,0l1.73,0c.48,0,1.06-.08,1.63-.07h1.16a31.45,31.45,0,0,0,6.06.08c.09,0,.19-.1.28,0,1.35.11,2.79.33,4.13.44l2.5.32a29,29,0,0,1,2.88.52c.48,0,.57.39.56.87-.1.68-.11,1.35-.22,2.12,0,.38,0,.77,0,1.25,0,.77-.21.87-1,.86-.48-.1-1-.11-1.45-.21-1.05-.21-2.11.16-3.26-.14a12.62,12.62,0,0,0-3.27-.14c-.19,0-.29.1-.48.09.16,2.13.33,4.25.4,6.37.08,1.26.16,2.61.24,3.86s0,2.32.05,3.47.06,2.61,0,3.86-.13,2.79,0,4.14c.07,1.64.34,3.38.42,5a20.58,20.58,0,0,1,.07,2.22c.07,1.74.24,3.57.22,5.4a12.44,12.44,0,0,1,0,1.93c0,1.35.06,2.61,0,3.86,0,1.06-.12,2.12-.23,3.27a30.1,30.1,0,0,0-.23,3.08,15.33,15.33,0,0,1-.83,4.62c-.3,1-.4,1.15-1.46,1.14-1.34-.11-2.59-.13-3.94-.15a.38.38,0,0,1-.29-.09c0-.2-.09-.49-.08-.68,0-1.35,0-2.7.05-3.95l.06-5.5c0-1.06-.07-2-.05-3.08,0-.68.11-1.45.12-2.12,0-2.12-.05-4.15,0-6.27-.06-2.89,0-5.78.11-8.58a28.56,28.56,0,0,0-.16-3c-.08-1,0-1.93,0-2.79-.07-1.55-.06-3,0-4.44,0-1.25,0-2.5.05-3.76-.07-2.51-.13-5-.1-7.71C338.46,9.12,337.6,9,336.83,9Z"/><path class="cls-1" d="M434.39,31.52c.67.69,1.33,1.27,1.9,2a11.68,11.68,0,0,1,2.06,4.27,26.51,26.51,0,0,1,1.22,10.33c0,1.15-.13,2.4-.24,3.66a19.79,19.79,0,0,1-.22,2.4c0,1.16,0,2.22-.14,3.37-.12,2-.34,4.15-.56,6.27,0,.48-.2.76-.78.76-2,.16-3.95.24-6,.31-.19.09-.38,0-.67,0,0-.39-.08-.77-.08-1.16a23.55,23.55,0,0,0,.46-5.68,68.38,68.38,0,0,0,0-7.71c-.16-3.19-.41-6.27-.85-9.46a12.8,12.8,0,0,0-1.19-4.26c-.75-1.55-1.79-2.82-3.81-2.84a23.92,23.92,0,0,0-6.93.59,11.17,11.17,0,0,0,0,1.83c0,1.35.07,2.6.15,3.85,0,1.55,0,3-.06,4.54,0,.48,0,.86,0,1.35l-.06,4.62c0,.48,0,1,0,1.54a38,38,0,0,0-.28,6.65,16.79,16.79,0,0,1,0,3.09c0,1-.2,1.15-1.17,1.23s-1.92.17-3,.35c-.38,0-.77.09-1.15.09-.2.09-.39,0-.58,0a6.49,6.49,0,0,1-.08-1.35c-.16-2.9-.22-5.88-.37-8.78-.22-5.4,0-10.8.11-16.19.13-2.8.35-5.59.48-8.39.23-2.4.45-4.71.67-7.12.22-1.93.34-3.95.46-5.87.22-2.41.44-4.82.57-7.23a34.64,34.64,0,0,0,0-4.44,5.37,5.37,0,0,0,.87-.76A1.37,1.37,0,0,1,415.9,3c1.73-.26,3.56-.43,5.39-.6.39,0,.77-.09,1.16-.08a15.3,15.3,0,0,1,6.24.65,8.1,8.1,0,0,1,4.48,2.76,10.85,10.85,0,0,1,2,3.59,19.28,19.28,0,0,1,.88,6.57c-.12,1.34-.13,2.69-.15,3.95a5.45,5.45,0,0,1-.21,1.25c-.2,1.16-.51,2.4-.81,3.65a4.2,4.2,0,0,1-.5,1c-.77.86-1.56,1.72-2.33,2.57a6.13,6.13,0,0,1-.78.86A7.84,7.84,0,0,1,434.39,31.52Zm-11.77-4.77c1.26-.27,2.51-.64,3.77-1a1.79,1.79,0,0,0,1-.67,10.57,10.57,0,0,0,1.8-5.85,34.32,34.32,0,0,0-.61-5.31,12.21,12.21,0,0,0-1-3.49,5.53,5.53,0,0,0-3-2.54c-1.34-.5-2.69-.32-4-.53a5.7,5.7,0,0,0-1.25,0c-.14,3.28-.18,6.55-.41,9.83s-.18,6.46,0,9.93C420.12,26.91,421.37,26.93,422.62,26.75Z"/><path class="cls-1" d="M506.8,57a3.34,3.34,0,0,1,1,0,20.47,20.47,0,0,0,4.81-.33c.87-.08,1.64-.27,2.51-.35.67-.09.86.11.95.78s0,1.25,0,1.93a23.43,23.43,0,0,1,0,2.5c0,.77-.11.87-.88,1l-3.37.24h-1.06c-.76-.2-1.64.18-2.4-.32h-.19a10.28,10.28,0,0,1-3.47.44c-1.54.08-3,0-4.52,0a15.41,15.41,0,0,0-2.21.16c-.86,0-.86-.1-.95-.88-.08-1.64-.15-3.18-.23-4.82-.08-1,0-2,0-3.08-.06-2.7,0-5.4,0-8.1-.06-2.31.06-4.53.09-6.84,0-1.93.05-3.86.07-5.88,0-3.19.09-6.46.22-9.74l.06-4.34c0-2.31,0-4.72.08-7,.13-2.51.26-5.11.49-7.62a5.6,5.6,0,0,1,.5-1.72c.1-.1.29-.29.48-.29a10.06,10.06,0,0,1,1.73-.07c.29,0,.48.1.77.11,2.6,0,5.1.15,7.69.28.48,0,.87-.08,1.35-.08s1.06-.08,1.54-.07c1.05.3,2.2.6,3.25.81a.67.67,0,0,1,.57.78c0,1.06.07,2,.06,3.08.09.39-.2.67-.68.67l-3.56-.05c-.19,0-.29-.1-.48,0-1.83.17-3.66.34-5.39.61s-2,.45-1.86,2.09c.26,2.9.12,5.89.09,8.88s-.08,5.88-.11,8.86c0,1.16,0,2.22.05,3.47l2.69,0,1.63,0a6.08,6.08,0,0,1,1.26-.18,9,9,0,0,1,1.63-.17c1.06-.08,2.22-.07,3.27-.15.68,0,.87.2.86.78s-.11,1.06-.21,1.54a19.46,19.46,0,0,1-.13,2.41c0,.38,0,.77,0,1.25-3.75.14-7.41.39-11.26.53,0,.29,0,.58,0,.87,0,1.74,0,3.57,0,5.4,0,1.06-.13,2.22-.14,3.37,0,1.55,0,3,0,4.54.08,1.35.16,2.6.24,4,0,.29.09.48.08,1C504.88,57.19,505.84,57.11,506.8,57Z"/><path class="cls-1" d="M583.22,57.31a3.37,3.37,0,0,1,1,0A20,20,0,0,0,589,57c.87-.09,1.64-.27,2.51-.36.67-.09.86.11,1,.78s0,1.26,0,1.93a21.35,21.35,0,0,1,0,2.51c0,.77-.1.87-.87,1l-3.37.25h-1.06c-.76-.2-1.64.17-2.4-.32h-.19a10.28,10.28,0,0,1-3.47.44c-1.54.08-3,0-4.52,0a15.37,15.37,0,0,0-2.21.17c-.86,0-.86-.11-.95-.88-.08-1.64-.15-3.19-.23-4.83-.08-1,0-2,0-3.08-.06-2.7,0-5.4,0-8.1-.07-2.31.05-4.53.08-6.84,0-1.93,0-3.86.08-5.88,0-3.18.08-6.46.21-9.73l.06-4.34c0-2.32,0-4.73.08-7,.13-2.51.26-5.1.49-7.61a5.66,5.66,0,0,1,.5-1.73c.1-.09.29-.28.48-.28A11.19,11.19,0,0,1,576.88,3c.29,0,.48.11.77.11,2.6,0,5.09.16,7.69.29.48,0,.86-.09,1.35-.08s1-.08,1.54-.08c1,.3,2.2.61,3.25.81a.67.67,0,0,1,.57.78c0,1.06.07,2,.06,3.09.09.38-.2.67-.68.66l-3.56,0c-.19,0-.29-.1-.48,0-1.83.17-3.66.34-5.39.61s-2,.46-1.86,2.1a87.25,87.25,0,0,1,.08,8.87c0,2.89-.07,5.88-.1,8.87,0,1.15,0,2.21,0,3.47l2.69,0,1.63,0a5.44,5.44,0,0,1,1.25-.17,10.28,10.28,0,0,1,1.64-.18c1.06-.08,2.21-.06,3.27-.15.68,0,.87.21.86.78s-.11,1.06-.21,1.54a19.46,19.46,0,0,1-.13,2.41c0,.39,0,.77,0,1.25-3.76.15-7.41.4-11.26.54,0,.29,0,.58,0,.87,0,1.73.05,3.57,0,5.4,0,1.06-.13,2.21-.14,3.37,0,1.54,0,3,0,4.53.08,1.35.16,2.61.24,4,0,.29.09.48.08,1C581.3,57.48,582.26,57.39,583.22,57.31Z"/></g></g></svg>