<svg xmlns="http://www.w3.org/2000/svg" viewBox="0 0 260.08 63.87"><defs><style>.cls-1{fill:#231815;}</style></defs><title>資產 6</title><g id="圖層_2" data-name="圖層 2"><g id="圖層_1-2" data-name="圖層 1"><path class="cls-1" d="M11.29,63a3.63,3.63,0,0,1-1.92-.83,4.67,4.67,0,0,1-.82-2.23l.14-25.74a58.92,58.92,0,0,1-4.11,6.7,3.1,3.1,0,0,1-2.46.69L.75,40.86a3.28,3.28,0,0,1-.69-2.79q12.74-20.92,15.4-27a3.32,3.32,0,0,1,2.61-.84l1.36.7a3.39,3.39,0,0,1,.69,2.58,71,71,0,0,1-3.36,6.77,31.14,31.14,0,0,0-2.87,6.9L14.3,57a13.65,13.65,0,0,1-1,5.16A4.4,4.4,0,0,1,11.29,63ZM3.21,23.42a3.63,3.63,0,0,1-1.92-.83A3.28,3.28,0,0,1,.61,19.8a65.5,65.5,0,0,1,4.31-9.24q2.54-4.5,4.73-9.1a3.09,3.09,0,0,1,2.73-.7l1.51.84a3,3,0,0,1,.68,2.51c-1.55,2.69-2.83,5-3.83,7s-2,3.9-2.94,5.76a52.11,52.11,0,0,0-2.54,5.72A4.4,4.4,0,0,1,3.21,23.42Zm18,38-1.5-.84a2.33,2.33,0,0,1-.41-1.81l.55-1a14.71,14.71,0,0,1,5-1.11,48.24,48.24,0,0,0,5.27-.56v-5.3a15.73,15.73,0,0,1-6-.56,2.81,2.81,0,0,1-.55-2.16,2.52,2.52,0,0,1,1.37-1.39H30V41.83L24.09,42c-1.37-.14-2.1-.59-2.19-1.36s-.27-5.47-.55-14.12c.18-1.3.64-2,1.37-2.16a58.93,58.93,0,0,1,6.85-.21v-3.9l-7.81.27-1.5-.83a2.32,2.32,0,0,1-.41-1.82,2.51,2.51,0,0,1,1.36-1.39l8.36-.28.27-7q-2.88.55-5.2.83L23.27,8.43V7.17a2.56,2.56,0,0,1,1.37-1.39A64.13,64.13,0,0,0,32.1,4.52a39.87,39.87,0,0,1,7.46-1,2.52,2.52,0,0,1,1.37,1.39V6.06a2.52,2.52,0,0,1-1.37,1.39L35.18,8l-.27,7.88,7.25-.14,1.78.84a2.35,2.35,0,0,1,.41,1.81A2.54,2.54,0,0,1,43,19.8l-8.07.14v4.18h7.53c1.23,0,2,.75,2.19,2.23l-.14,13.53c-.23,1.54-.74,2.32-1.54,2.34s-3.34,0-7.63,0v4.33h5.61A2.49,2.49,0,0,1,42.3,48v1.12a2.53,2.53,0,0,1-1.37,1.46l-5.48.14v4.74L42,55a2.56,2.56,0,0,1,1.36,1.4v1.11a2.47,2.47,0,0,1-1.5,1.54c-3.56.18-7,.51-10.48,1Zm8.63-30.61V28.17H25.32v2.37Zm.14,7V34.86l-4.25-.28.14,3.07Zm10.54-6.56V28.17H35.18v2.92Zm0,7V35.42l-5.2-.28v3.07ZM55,62.61a45.46,45.46,0,0,1-5.4-4.6,3.43,3.43,0,0,1-.83-2.65L49.42,54a3.36,3.36,0,0,1,2.53-.7,36.2,36.2,0,0,1,3.7,2.79l-.82-30.41-8,.14A3.63,3.63,0,0,1,44.9,25a3.24,3.24,0,0,1-.68-2.51l.68-1.4,1.37-.7,16.91-.41,1.64.83a3.28,3.28,0,0,1,.69,2.51l-.69,1.4a7.19,7.19,0,0,1-4.65.7L61,59.69A8.84,8.84,0,0,1,60.17,63Q59.35,64.92,55,62.61Zm7.53-51.53q-2.87-.42-14.58-.7A3.56,3.56,0,0,1,46,9.55,3.28,3.28,0,0,1,45.31,7L46,5.64l1.36-.7q11.3.42,13.49.42a9.2,9.2,0,0,1,4,.84,3.28,3.28,0,0,1,.69,2.51l-.69,1.39A4.63,4.63,0,0,1,62.49,11.08Z"/><path class="cls-1" d="M106.58,62.55a3.72,3.72,0,0,1-1.92-.84,3.76,3.76,0,0,1-.68-2.65l.68-1.4a66.13,66.13,0,0,1,6.16-3.27,59.55,59.55,0,0,1,6.51-2.58l1.37.69a3.32,3.32,0,0,1,.68,2.51l-.68,1.4a39.91,39.91,0,0,1-4.86,2.65,34.4,34.4,0,0,0-4.25,2.23A7.87,7.87,0,0,1,106.58,62.55Zm10.34-35.92c-2-.74-3.93-1.42-5.89-2s-3.9-1.19-5.82-1.74a3.25,3.25,0,0,1-.68-2.52l.68-1.39a4.15,4.15,0,0,1,3.15-.7c1.82.38,3.63.84,5.41,1.4a28.48,28.48,0,0,1,5.2,2.23,3.28,3.28,0,0,1,.68,2.51L119,25.79A4.31,4.31,0,0,1,116.92,26.63Zm1.91-15.41q-2.94-1.4-11.43-6.56a3.23,3.23,0,0,1-.68-2.51L107.4.76a4.64,4.64,0,0,1,3.42-.7,30.09,30.09,0,0,1,5.31,3.14,54.29,54.29,0,0,0,5.3,3.42,3.28,3.28,0,0,1,.69,2.51l-.69,1.39A3.58,3.58,0,0,1,118.83,11.22ZM131.15,62q-2.11.21-2.49-1.08t-.31-24.73q.06-23.43-.07-25.45c-.09-1.35.34-2,1.3-2.09s4.63,0,11,.21l-.14-5.93.83-1.67a3.13,3.13,0,0,1,2.46-.7l1.37.7a8.45,8.45,0,0,1,.75,3.66,24.51,24.51,0,0,0,.21,3.94q11.7-.13,13.28,0c1,.09,1.48,1.49,1.3,4.18q-1.84,19.4-2,20.33t-3.15.66H134.17l-.07,21.27q2.81-1.53,4.58-2.58a10.26,10.26,0,0,1,3.84-1.32l1.37.69a3.3,3.3,0,0,1,.68,2.52L143.89,56a54.33,54.33,0,0,1-5.68,3.28A47.79,47.79,0,0,1,131.15,62Zm23.62-43.45.14-4.11-21-.42L134,18.4Zm-1.09,10,.54-4.6-20.05-.14v4.74Zm8.21,31.87a18,18,0,0,1-5.61-2.65c-1.74-1.2-3.37-2.44-4.9-3.69s-2.95-2.5-4.28-3.73-2.66-2.53-4-3.87a38.18,38.18,0,0,1-3.15-3.42,5.27,5.27,0,0,1-1.1-3.35l.69-1.39a3.13,3.13,0,0,1,2.46-.7,57.34,57.34,0,0,0,7.39,7.11l4.86-6.41a3.49,3.49,0,0,1,2.88-.7l1.37.7a3.28,3.28,0,0,1,.68,2.51l-.68,1.39-5.2,6.56q3.82,3,6.16,4.53a19.69,19.69,0,0,0,5.06,2.37,3.28,3.28,0,0,1,.69,2.51l-.69,1.4A4.21,4.21,0,0,1,161.89,60.45Z"/><path class="cls-1" d="M256.36,61.15l-1.37-.7-2.19-4.88q-9.24,1.26-18,2l-17.53,1.4a3.21,3.21,0,0,1-2-1,2.85,2.85,0,0,1-.69-2.37,120,120,0,0,1,5.62-10.63q3.08-5.2,6.09-10.36H206l-1.65-.84a3.31,3.31,0,0,1-.68-2.51l.68-1.39,1.37-.7h25.4L231,13.31H218.23a3.56,3.56,0,0,1-1.92-.84,3.13,3.13,0,0,1-.75-2.51l.75-1.39,1.37-.7H231a14,14,0,0,1,.69-6.55,3.58,3.58,0,0,1,2.6-.7l1.37.7A14.63,14.63,0,0,1,236.3,8h11.5a4.74,4.74,0,0,1,2.74.84,3.4,3.4,0,0,1,.69,2.65l-.69,1.39a3.94,3.94,0,0,1-3.15.77l-11.09-.14.14,15.34q13.27.29,16.6.28a20.45,20.45,0,0,1,6.33,1,3.28,3.28,0,0,1,.69,2.51L259.37,34a5.32,5.32,0,0,1-3.83.84l-22.32-.49A97.67,97.67,0,0,0,227,43.93c-1.73,3.06-3.42,6.16-5.06,9.27Q229,52.51,236,52t13.76-1.54a21.07,21.07,0,0,0-2.12-3.76,6.91,6.91,0,0,1-1.3-3.7l.68-1.4a3.19,3.19,0,0,1,2.47-.69l1.37.69q2.67,4.19,5.2,8.48a28.93,28.93,0,0,1,3.49,9l-.69,1.39A3.13,3.13,0,0,1,256.36,61.15Z"/></g></g></svg>