<svg xmlns="http://www.w3.org/2000/svg" viewBox="0 0 80.19 6.7"><defs><style>.cls-1{fill:#383278;}</style></defs><title>nav-bottom-line</title><g id="圖層_2" data-name="圖層 2"><g id="圖層_1-2" data-name="圖層 1"><path class="cls-1" d="M80.17,7A.11.11,0,0,0,80,6.87L80,7.12Z" transform="translate(0 -2.33)"/><path class="cls-1" d="M79.24,6.7c-.14.13-.3.34-.18.54.13-.23.18-.14.32-.42A.16.16,0,0,1,79.6,7c0-.07.21,0,.26-.13a.44.44,0,0,0-.61,0C79.19,6.81,79.24,6.75,79.24,6.7Z" transform="translate(0 -2.33)"/><path class="cls-1" d="M68.07,4.83l.08,0A.13.13,0,0,0,68.07,4.83Z" transform="translate(0 -2.33)"/><path class="cls-1" d="M60.81,6.57c.06,0,.08,0,.09-.05S60.8,6.55,60.81,6.57Z" transform="translate(0 -2.33)"/><path class="cls-1" d="M59.54,6.23l.07,0S59.56,6.21,59.54,6.23Z" transform="translate(0 -2.33)"/><path class="cls-1" d="M68.07,4.83l-.2,0C67.9,5,68,4.87,68.07,4.83Z" transform="translate(0 -2.33)"/><path class="cls-1" d="M77.49,7.34a.23.23,0,0,0,.12-.06l-.11,0Z" transform="translate(0 -2.33)"/><path class="cls-1" d="M70.72,4.44l0,0,.09,0Z" transform="translate(0 -2.33)"/><path class="cls-1" d="M72.93,5.53c-.06,0-.14.15-.19.23a.21.21,0,0,1,.17-.09A.52.52,0,0,0,72.93,5.53Z" transform="translate(0 -2.33)"/><path class="cls-1" d="M76.9,6.54l.08,0Z" transform="translate(0 -2.33)"/><path class="cls-1" d="M69.12,2.8a.41.41,0,0,0,0-.1A.41.41,0,0,0,69.12,2.8Z" transform="translate(0 -2.33)"/><path class="cls-1" d="M3.08,8.83v0S3.06,8.83,3.08,8.83Z" transform="translate(0 -2.33)"/><path class="cls-1" d="M.12,7.42h0a.45.45,0,0,0,0-.11Z" transform="translate(0 -2.33)"/><path class="cls-1" d="M57.33,5.53h0C57.4,5.53,57.37,5.53,57.33,5.53Z" transform="translate(0 -2.33)"/><path class="cls-1" d="M37,5c.14.26-.46,0-.22.37C36.79,5.31,37.21,5.26,37,5Z" transform="translate(0 -2.33)"/><path class="cls-1" d="M77.42,7.32h0Z" transform="translate(0 -2.33)"/><path class="cls-1" d="M36.78,5.4h0l0,0Z" transform="translate(0 -2.33)"/><path class="cls-1" d="M52.3,3.72a.18.18,0,0,0,.1,0S52.37,3.71,52.3,3.72Z" transform="translate(0 -2.33)"/><path class="cls-1" d="M55.94,5.44l-.08-.07A.17.17,0,0,0,55.94,5.44Z" transform="translate(0 -2.33)"/><path class="cls-1" d="M50.64,5.3s-.08,0-.13.06h0S50.57,5.3,50.64,5.3Z" transform="translate(0 -2.33)"/><path class="cls-1" d="M48.62,6.08l.05,0,.06,0Z" transform="translate(0 -2.33)"/><path class="cls-1" d="M10.23,8.26a.51.51,0,0,1-.15-.14C10.15,8.25,9.82,8.38,10.23,8.26Z" transform="translate(0 -2.33)"/><path class="cls-1" d="M77.49,7.23s0,.08-.07.09h.08A.08.08,0,0,0,77.49,7.23Z" transform="translate(0 -2.33)"/><path class="cls-1" d="M51.25,6.74l-.37.14A2.48,2.48,0,0,0,51.25,6.74Z" transform="translate(0 -2.33)"/><path class="cls-1" d="M22.92,8h-.09S22.9,8,22.92,8Z" transform="translate(0 -2.33)"/><path class="cls-1" d="M49.81,7.33a.61.61,0,0,0-.25-.06l0,.06Z" transform="translate(0 -2.33)"/><path class="cls-1" d="M10.08,8.12Z" transform="translate(0 -2.33)"/><path class="cls-1" d="M7.7,9c.36,0,.14-.27.2-.43.41-.12.22.17.38.28.26-.11.42-.37.62-.39,0,0,.07.05,0,.11.24-.25.83-.18,1.09-.49a.1.1,0,0,1,.06,0A.72.72,0,0,1,10,7.78c.15,0,.24-.23.34-.08-.09,0-.09.09-.12.15l.15-.11c.2.19-.2.14-.16.31.3-.16.61-.44.87-.45.12.22-.55.23-.16.35h-.4c.38.29-.24,0,.13.35.52-.06.53-.26,1-.37.07-.16-.1-.17,0-.33.6-.46.76.35,1.16-.15.06-.21,0-.5.4-.53v.3c.48-.21.07-.48.63-.59,0,.14-.3.29-.22.27.41,0,.14-.25.36-.39l.18.16A6.51,6.51,0,0,0,15.33,5.3c0,.07,0,.21.17.14a.53.53,0,0,0,.09-.16.26.26,0,0,1,.05-.09c.08-.13.16-.17.17-.06v.13a1.47,1.47,0,0,1,0-.31v.23c0,.17,0-.21,0-.3a.77.77,0,0,1,0,.3A.11.11,0,0,1,16,5.12a.3.3,0,0,1,.11,0l.07,0,.14.13a2.35,2.35,0,0,1,.46.5l-.12,0c.3.34.63-.06.85.3h-.08c.73.55,1.71.73,2.25,1.23.21-.25.81.37,1,0,.44.31.28.36,1,.62.19.06.32-.2.56-.21l0,.22.35-.18.13.28.22,0c-.08,0-.17-.11-.15-.17a.88.88,0,0,1,.81.34L24.3,8c0,.09-.15.11-.26.16.44-.2.07.24.47,0-.05-.05,0-.13,0-.17a1.5,1.5,0,0,0,1,.07l-.06.15a13.68,13.68,0,0,0,1.93-.21.18.18,0,0,1,0-.35l.11.22c.11-.16-.21-.06,0-.27.25,0,.2.24.07.33l.29-.12c0,.07,0,.11,0,.2.1-.15.56.14.7-.13l0,.06A11.63,11.63,0,0,0,30,7.58c0-.19.18-.21.29-.41a4.62,4.62,0,0,0,1.34-.27c.28-.22,0-.19.12-.36.1.15.54-.08.36.15a4.14,4.14,0,0,0,1.24-.94c-.11,0-.2,0-.2-.06s.3-.13.34-.05l0,0c.15-.22.53-.54.58-.5a.22.22,0,0,1,.22.05c0,.1,0,.12.12,0h0l.11,0a.36.36,0,0,1,.22.06c.24.24-.25,0-.12.22.79.26,1,.76,1.65.88.21.72,1.57.65,2.08,1.14V7.41c.19-.08.17.12.28.18,0-.1-.14-.16,0-.19,1.38.24,2.77.79,4.2,1,.53.06.32-.62,1-.32l-.18.23c1-.25,2.15,0,3.14-.42-.05.07,0,.14-.14.15.24.13.8-.11.78-.25.16,0,0,.11.16.16s.5-.31.65-.18,0,.07-.09.09c.13-.11.66-.13.48-.29.4,0,.69-.28,1-.27.12-.26.67-.12.62-.43.09.31.74,0,.9-.28,0,.13.24,0,.21.16.26-.14.47-.32.34-.44.68.06.74-.82,1.27-.64.14-.14.12-.16.14-.22l.06-.16a1.1,1.1,0,0,1,.14-.33l.19.16c-.12.28-.17-.09-.21.11v.15h0a.19.19,0,0,1,.2-.1h.08s0,0,0,0l.1.07c.13.1.25.21.39.33s-.17,0-.26,0a6.13,6.13,0,0,0,1.88.94s-.09,0-.16,0c.12,0,.26.16.3,0h-.13c-.1-.27.62-.22.68-.32-.34.32.54.29.06.68.09,0,.2,0,.22-.13.1.07.12.13,0,.2.45.06.34-.14.73,0,0,.07-.11.07-.17.14a1,1,0,0,1,.78,0s0,.1-.1.08c.58.1,1-.17,1.62,0-.22.28.2.12.21.38l.35,0-.13-.14c.3,0,.57-.15.82,0l-.22.09.55,0-.31-.11c.3-.13,0-.33.36-.25-.07,0,.29,0,.45.16h0A.56.56,0,0,1,62,7.2c.06.08,0,.29,0,.34.13-.22.69-.11.84-.36a.27.27,0,0,0,0,.23l.1-.19c.14,0,.17.06.16.17.41,0-.17-.31.33-.23,0,0,0,0-.09.08.5,0,.91-.25,1.36-.27.19.23-.37.16-.17.34.64-.19,1.23-.63,1.84-.79h-.12c0-.37.51,0,.74-.29-.06.06,0,.23,0,.18a3.26,3.26,0,0,0,1.26-1V5.6a3.25,3.25,0,0,0,.8-.55c0-.1,0-.18-.07-.24.19,0,.26,0,.33-.14a.77.77,0,0,0,.07-.2c0-.06,0-.24.07-.16a1,1,0,0,1,.41.61s-.13,0-.1,0L69.9,5l.27.17c.06-.16,0-.13,0-.31a.65.65,0,0,1,.43.12c-.29-.09-.16.21-.1.36,0-.06.08-.08.1-.12.12.43.22-.24.5.16L71,5.47c.16.06.36,0,.5.13,0,.2-.2,0-.28.12.24.12.61-.09.74.17-.12,0-.26-.06-.38-.06.14.31.19.27.35.38h0l.38.25-.09-.1c.47-.34.66.14,1.16-.06-.48.19-.11.15-.2.35.1.09.25.19.18.24.25-.11.31.22.66,0,0,.07.21.06.13.21.28,0,0-.12,0-.21.44-.15.92.46,1.55.2.53-.09.63-.31,1.1-.41.15.12-.14.24-.14.24a.85.85,0,0,0,.68,0c0,.06,0,.11.08.19s.13-.25.38-.15a1,1,0,0,1-.19.27c.23-.06.45-.2.69-.27.06.12-.14.19-.22.27.26-.06.69-.14.75-.33l-.17-.06c.1,0,.06.16,0,.2A.21.21,0,0,1,78.3,7l.17,0c-.19-.39-.66.09-1,.06l.14-.29-.34.24c-.07-.07-.12-.24,0-.28-.24-.15-.22.1-.42-.06,0,0,0,0,0,0l-.23.07c0-.06,0-.2.11-.16-.4-.18-.68.18-.82,0h0c-.58,0-.07.2-.53.41l-.23-.56-.08.2c-.06,0-.17,0-.14-.13-.24.12,0,.1-.12.22-.25-.24-.8,0-.79-.4-.14.14.24.18-.08.23,0-.38-.36,0-.57-.25.12-.16.33,0,.12-.23-.23.27-.46-.2-.67-.21-.09.24-.48,0-.84-.11.05-.07-.57-.4-.79-.66l0,0c-.19.19-.45,0-.68-.15A.3.3,0,0,1,71,4.61a1.24,1.24,0,0,1-.18-.14.31.31,0,0,1-.31,0l.17-.1a3.71,3.71,0,0,1-.53-.44A2.43,2.43,0,0,1,69.61,3c0,.18,0,.55,0,.8s0,.36-.14.3V3.83c0-.13,0-.22.06-.2s-.08,0-.12-.13a.33.33,0,0,1,.11-.18c-.12-.37-.08.07-.14,0h0a1.35,1.35,0,0,0,0-.3s0,0,0-.16,0,0,.07,0,0,0,0,0l0-.11s0-.08-.07,0l-.07,0s-.1,0-.13,0a1.12,1.12,0,0,1,0,.57c-.22.46-.13-.13-.31.07,0,.28-.25.44-.14.66-.08.1-.15,0-.22,0a.91.91,0,0,1-.13.26l-.14.17c-.09.11-.14.21,0,.23h0l0,0h0c-.29.5-1,.53-1.39.82l0-.06c-.25.2-.62.32-.79.53-.09,0-.25,0-.24-.14a.73.73,0,0,1-.59.2c.2-.19-.11-.08.22-.16-.32,0-.41,0-.69.21.07-.2-.28-.17-.42-.08l.24.07a1.2,1.2,0,0,1-.45.09l0-.24c-.66-.17-1.08.66-1.61.23-.16.17.35.08.22.28-.3,0-.63-.31-.72-.31-.4-.12-.36.36-.79.27.06.08.11.31-.22.38s-.35-.35-.17-.42.11,0,.11,0,.22-.06.1-.15l0,.08c-.14-.08-.55-.09-.44-.23-.23.07-.11.14.06.19-.37-.14-.59,0-1-.16.06,0,.1.15,0,.15-.55-.16-.26.13-.66.11-.2-.16.13-.28-.28-.24-.21-.13,0-.23.09-.28-.37.1-.61-.22-.79-.29l.19,0a.68.68,0,0,1-.29,0l.07.19c-.1,0-.19-.07-.17-.14-.13.08,0,.29-.24.38-.11-.12-.45,0-.43-.26.41.19,0-.23.39-.16a.45.45,0,0,1-.26-.07s0,0,.06,0c-.34-.31-.26.18-.68,0a.16.16,0,0,0-.08-.26c.15.07,0,.22-.19.25-.22-.19-.31,0-.44-.12l.13.11c-.1.09-.22,0-.42,0,0-.1.19,0,.14-.06-.3.11-.34-.42-.66-.45-.07-.14.12-.2,0-.31-.35,0-.18-.33-.49-.43,0,.19,0,.17-.29.14.16.09.32.18.5.26a3.27,3.27,0,0,1-.44,0c.13.12.36.14.42.23-.22,0-.19,0-.2.14-.06-.36-.44-.13-.6-.56l.27-.34a7.9,7.9,0,0,0-1-1.45c-.1.1-.22.33-.35.45L53.2,3c-.06.38-.32.5-.5.84,0-.2-.17-.09-.3-.07.07.08-.5.54-.34.74h-.3c-.39.19-.18.62-.59.8,0-.19-.18-.18,0-.41-.12.07-.24.11-.2.19s-.26.35-.44.3,0,.22-.14.28a.09.09,0,0,1,0-.07c0,.07-.2.19,0,.28-.57-.2-1.19.49-1.69.25a6.82,6.82,0,0,1-1,.34s0-.06,0-.06c-.42,0-.17.44-.66.39-.27-.18.23-.17.07-.22-.14-.44-.55.15-.89-.07l.07,0c-.26-.13-.56.25-1,.24a.08.08,0,0,0,0-.07,2.25,2.25,0,0,1-1.14.43c.12-.18.17-.1.1-.27-.17,0,.06.29-.29.34-.11-.09-.35-.18-.38-.38H44c-.16-.25-.4,0-.57,0l0-.11c-.48,0-.5.29-1,.24l0,.09c-.31.25-.23-.18-.54,0l0-.29a4.31,4.31,0,0,1-1,.19,3.41,3.41,0,0,1,.88-.31c-.18,0-.62-.07-.74.06.08,0,.18-.07.25,0a1.18,1.18,0,0,1-1,.17c.17-.51-.93-.33-1.07-.82-.68,0-1.2-.45-1.87-.71.07.49-.2-.08-.34.33-.17,0-.23-.09-.23-.12a5.11,5.11,0,0,1-.33-.48c-.05-.16.18,0,.21-.09-.29-.21,0-.23-.18-.45,0,.16-.21.12-.35,0l.13.32a.36.36,0,0,1-.35-.31c0-.15,0-.24-.35-.37.16.07.16,0,.25,0l-.09,0a.44.44,0,0,1-.12-.1l-.12-.11c-.15-.17-.31-.36-.49-.55-.34-.36-.64-.69-.79-.61l0,.09s-.14-.1,0-.35c-.36.51-.74,1.28-1.13,1.84a1.18,1.18,0,0,1-.67.56l0-.12c-.07.1-.05.28-.24.26,0,0,0-.11-.06-.09s-.17.33-.34.34L31.77,5c-.6.15-.73.67-1.22.93-.11-.3-.6-.22-.86-.21v0a14.9,14.9,0,0,0-1.83.8c-.48-.26-1.48.06-2.18-.12.11,0,0,.24-.13.28s-.46.22-.43-.06h.06c-.13-.27-.46-.2-.72-.21l-.06.37c-.65-.56-1.82.06-2.13-.49-.18.08-.38,0-.56.09l.05-.19a8.86,8.86,0,0,0-1.19-.31l.15-.11c-.29-.1-.55.45-.83.36V5.74c-.53-.17-.91-.62-1.49-.63,0,0,.09-.1.16-.07-.22-.12-.68-.64-.84-.27.15-.21-.4-.32-.67-.44l.16-.11a.88.88,0,0,1-.73-.38H16.4c-.08-.07,0-.21.09-.11-.28-.22-.28.1-.51-.19l.09,0c-.19-.14-.15-.08-.24-.1s-.08-.21-.12-.27,0,.08,0,.07a.74.74,0,0,1-.12.3s0-.09,0-.12c-.17.12-.38.37-.58.55a.55.55,0,0,1-.21.28s-.09,0-.13,0a2.54,2.54,0,0,0,.24-.46c.29-.1.42-.17.4-.15s-.09-.1-.18-.14-.13-.12,0-.26a2,2,0,0,0-.36.25,3.84,3.84,0,0,1-.2.75l-.06.14-.05.08,0,0a.52.52,0,0,1-.11.1l-.06,0v0a.22.22,0,0,0-.09.14.56.56,0,0,0-.2.12c-.12-.08-.29.15-.4.23.13.15,0,.24.2.26,0,0,0,0,.07-.11a.07.07,0,0,0,0,0v0c.07-.07.17-.15.26-.25,0,.15-.05.3-.24.32a3.14,3.14,0,0,1,0,.38c-.34-.09-.74,0-.88-.12-.32.33-.88.57-1,1-.11.09-.18,0-.25-.08s.14-.09.16-.15c-.21.19-.72.32-.7.58-.36,0,.1-.29-.33-.1l0-.1c-1-.13-1.29,1-2.42.7.07,0,.11,0,.13.07-1.18,0-2.41.5-3.59.12-.33-.08-.37.08-.58.2l-.06-.21-.36.23c-.51.15-.81-.57-1.46-.29l.07.15c-.22,0-.72,0-.66-.16,0,0-.09.14-.17,0V7.34l-.58.11C.87,7.3,1.41,7,.81,6.9c-.23,0-.69.19-.63.28s.22.12.2.23H.16c-.11.31-.36.6.14.94l.42-.13.09.18L.49,8.36c.15.18.29.07.43,0a.29.29,0,0,0,.13.2l.42-.25c0,.13-.21.22,0,.33.19-.12-.12-.31.17-.36.16.17.1.28.32.18,0,.09,0,.14-.12.16.2-.07.5,0,.62-.14.17.2.64,0,.59.31a1,1,0,0,1,.52-.21c-.34.35.65.05.55.44.25-.31.86-.12,1.27-.31,0,0-.06.08-.1.07.23,0,.3.12.46.18,0-.28.38-.34.57-.52.3.24-.16.33-.06.58,0-.23.49-.25.38-.43.23.15.2.06.33.28,0-.34.2-.07.36-.3.34.14.12.31.46.18C8,8.83,7.7,9,7.7,9Zm7.58-3.73h0l-.12.15Zm.25-.34,0,0-.07.1s-.09-.11-.06-.15.07,0,.12,0Zm-1.73-.1c0-.08.1-.07.13-.05l-.1.12v0A.54.54,0,0,1,13.8,4.82Z" transform="translate(0 -2.33)"/><path class="cls-1" d="M13.83,5.12s0,0,0,0h.08l0-.07Z" transform="translate(0 -2.33)"/><path class="cls-1" d="M68.16,4.79h0Z" transform="translate(0 -2.33)"/><polygon class="cls-1" points="22.13 5.66 22.13 5.61 22.06 5.64 22.13 5.66"/><path class="cls-1" d="M70.47,5.37a.11.11,0,0,0,0,.07A.41.41,0,0,0,70.47,5.37Z" transform="translate(0 -2.33)"/><path class="cls-1" d="M71.94,6.21l.2.15A.74.74,0,0,0,71.94,6.21Z" transform="translate(0 -2.33)"/><path class="cls-1" d="M73.14,6.72l0-.08h0Z" transform="translate(0 -2.33)"/><path class="cls-1" d="M55.47,6.67h0C55.3,6.64,55.38,6.67,55.47,6.67Z" transform="translate(0 -2.33)"/><path class="cls-1" d="M61.51,7.32a1.18,1.18,0,0,1-.19.1C61.42,7.43,61.51,7.43,61.51,7.32Z" transform="translate(0 -2.33)"/><polygon class="cls-1" points="51.29 4.39 51.29 4.39 51.25 4.41 51.29 4.39"/><path class="cls-1" d="M61,7.41a.45.45,0,0,0,.28,0A.53.53,0,0,0,61,7.41Z" transform="translate(0 -2.33)"/><path class="cls-1" d="M78.63,7.33h.06a0,0,0,0,1,0,0Z" transform="translate(0 -2.33)"/><path class="cls-1" d="M78.7,7.3l.07,0S78.71,7.28,78.7,7.3Z" transform="translate(0 -2.33)"/><path class="cls-1" d="M78.91,7.21l-.14.06S78.88,7.27,78.91,7.21Z" transform="translate(0 -2.33)"/><path class="cls-1" d="M76.94,7.26l0,.07A.1.1,0,0,0,76.94,7.26Z" transform="translate(0 -2.33)"/><path class="cls-1" d="M76.43,7.26c.12,0,.3.17.47.13l0-.06C76.84,7.44,76.55,7.15,76.43,7.26Z" transform="translate(0 -2.33)"/><path class="cls-1" d="M74.46,6.14l.39.12c-.06-.08-.13-.2.05-.19C74.44,5.76,75,6.26,74.46,6.14Z" transform="translate(0 -2.33)"/><path class="cls-1" d="M73.26,5.74c.22,0,0-.1.06-.14C73.17,5.62,73.13,5.63,73.26,5.74Z" transform="translate(0 -2.33)"/><path class="cls-1" d="M65.62,5.92l0-.18C65.44,5.82,65.61,5.81,65.62,5.92Z" transform="translate(0 -2.33)"/><polygon class="cls-1" points="64.11 4.92 64.31 4.99 64.36 4.82 64.11 4.92"/><path class="cls-1" d="M62.9,6.13l.06,0-.26.09A.76.76,0,0,0,62.9,6.13Z" transform="translate(0 -2.33)"/><path class="cls-1" d="M48.94,5.8l.11.2C49.15,5.92,49.09,5.68,48.94,5.8Z" transform="translate(0 -2.33)"/><path class="cls-1" d="M42.5,6.71c-.07-.11-.25-.2-.37-.1C42.28,6.63,42.42,6.74,42.5,6.71Z" transform="translate(0 -2.33)"/><polygon class="cls-1" points="24.09 4.08 24.22 4.01 23.98 4.06 24.09 4.08"/></g></g></svg>