<svg xmlns="http://www.w3.org/2000/svg" viewBox="0 0 1365.5 161.21"><defs><style>.cls-1{fill:#1a1a1a;}.cls-2{fill:#fff;}</style></defs><title>footer</title><g id="圖層_2" data-name="圖層 2"><g id="圖層_1-2" data-name="圖層 1"><path class="cls-1" d="M1365.75,103.07v58.14H.25V113.78c73.81-16.57,133.44-15.94,176.32-11.57,84.49,8.6,104.5,31.79,190,33,77.25,1.1,91.89-17.37,178.28-22,80.12-4.29,122.5,8.65,187.1,17,168,21.72,211.51-23.12,438.84-31A1809.68,1809.68,0,0,1,1365.75,103.07Z" transform="translate(-0.25)"/><path d="M1247.72,72c-.22,4-.17,8-.74,11.86s-3,5.89-7.09,5.05c-3.19-.65-4.21.62-4.93,3.7-.87,3.72-1.63,8.22-6.8,8.71s-8.28-2.82-10.24-6.65c-1.49-2.94-3.15-3.6-6.09-3.7-13.59-.46-27.17-2.19-40.78-.07-2.22.35-3.55,1-4.3,3.3-2.41,7.37-10.35,9.08-14.51,2.5-3.22-5.09-6.91-6.92-12.44-7.43-3.64-.33-6-2.89-5.71-6.93.29-5,.34-10,1.11-14.9a11,11,0,0,1,6.38-8.47c4.74-2.13,7.16-5.71,8-10.61,2.13-12,8.82-19,21.29-19.92,1.75-.13,2.91-.64,2.5-2.73s-.82-4.4-3.89-4.07c-8.58.93-17.15,1.91-25,5.92-1.35.69-2.83,2.73-4.26.71s.52-3.32,2-4.31c1.8-1.17,3.61-2.71,5.62-3.15,5.09-1.12,3.74-3.58,1.55-6.17-.93-1.11-2.78-1.72-1.6-3.55s2.9-1.53,4.5-.88c2.14.87,5.11,1.43,6.1,3.09,2.6,4.41,6.39,3.74,10.26,3.62,11.64-.38,23.36-.63,34.91-.11a172.18,172.18,0,0,1,34.88,5.55c2.41.62,4.9.87,7.33,1.43,1.24.28,2.91.56,2.44,2.43-.41,1.63-1.87,1-2.94.85-5.25-.87-10.48-1.84-15.73-2.69a41.23,41.23,0,0,0-5.44-.53c-2.43-.07-2.37,1.85-2.54,3.5s.68,2.44,2.33,2.43c1.33,0,2.67.12,4,0,7.62-.56,12,2.05,14,9.36C1245.06,49.9,1247.52,60.76,1247.72,72Zm-89.63-33.73c4.41-1.48,8.49.49,12.64.57,3.41.06,5.64,1.71,4.77,5.31-1.22,5,4,12.42-4.6,14.66-5.1,1.32-10.71.89-15.82-.34-5.53-1.32-9.23,1.57-13.19,4.09-1.6,1-2.59,2.22-.29,4.57,4.18,4.27,2.58,11.53-2.6,14.67a2.12,2.12,0,0,0-1.27,2.39,2.36,2.36,0,0,0,2.51,2c4.22.3,8.34,1.26,10.78-4.16,1.64-3.65,5.42-5.24,9.67-4.76,4.58.51,7.37,3.21,8.1,7.58.54,3.22,2.37,2.94,4.66,2.71,11.62-1.15,23.24-.6,34.84.3,4.48.35,7.83.41,9.63-5a10.47,10.47,0,0,1,11.2-7.44c5.2.34,7.56,3.59,8.34,8.35a2.65,2.65,0,0,0,3.1,2.51,3.24,3.24,0,0,0,3-2.18c.8-1.9-.32-2.42-1.75-3.34a5.17,5.17,0,0,1,.53-9.18,3.23,3.23,0,0,0,2-3.57,116.45,116.45,0,0,0-5.84-28.76c-1.9-5.57-4.89-7-10.72-6.07a32,32,0,0,1-8,.13c-16.24-1.42-32.51-2.32-48.81-1.45C1165.91,32.12,1161.23,33.65,1158.09,38.29Zm28.2-17.66c-1,.08-1.64.15-2.3.19-2.3.13-4.7-.26-4.72,3.44,0,4,2.5,3.47,5,3.58,9,.39,17.92.81,26.87,1.36,2.34.15,4.39.45,4.61-2.77.19-2.89-1.66-3.91-4-4.08C1203.2,21.68,1194.59,21.18,1186.29,20.63Zm41.76,69.82a3.81,3.81,0,0,0-3.9-3.56c-1.81-.1-2.07,1.37-2,2.7.05,2.22,1.64,3.11,3.55,3.32C1227.24,93.08,1228.06,92.15,1228.05,90.45ZM1160.31,88c-.13-.82-.48-1.68-1.78-1.56a3.34,3.34,0,0,0-3.37,3c-.19,1.62,1.21,1.77,2.36,1.74C1159.33,91.07,1160,89.8,1160.31,88Z" transform="translate(-0.25)"/><path d="M1196,59c-11.23.06-11.25.06-11.28-10.47,0-1.82.14-3.65.32-5.46.24-2.54,1.62-3.82,4.26-3.8,6.12.06,12.24.54,18.29-1,2.24-.58,3.58.4,3.9,3.11.54,4.5-.9,8.86-.56,13.34.14,1.89-1.38,2.83-3.27,3.05C1203.52,58.26,1199.5,59.52,1196,59Z" transform="translate(-0.25)"/><path d="M1181.13,83.38c-3-5.14-3.41-9.33-2.7-13.55.57-3.38-.44-4.28-3.81-4.43-7.83-.36-15.59.52-23.39.55-1.53,0-4.15.78-4.28-1.24-.15-2.53,2.49-1.34,3.91-1.38,7.48-.26,15-.8,22.45-.34,5.4.34,6.4-1,6.1-6.37-.36-6.48-1.18-13-.33-19.44.17-1.35-.76-4.15,1.81-3.67,1.88.35,2,3.1,1.53,4.77-1.78,6.44-.67,12.89-.71,19.35,0,4.13,1.51,4.74,5.27,4.88,14.14.53,28.24.76,42.25-1.78.42-.08.91.25,1.78.52-1.82,2.69-4.56,2.61-7,3-12.57,1.8-25.21,1.51-37.82.76-4-.24-5.53.88-5.35,4.79S1181,77.87,1181.13,83.38Z" transform="translate(-0.25)"/><path d="M1215.43,47.45c.24-8.73.76-9.15,9.78-8a10.37,10.37,0,0,1,8.69,14.22,3.24,3.24,0,0,1-2.51,2.13c-1.78.4-3.57.76-5.36,1.05C1216,58.44,1215.14,57.67,1215.43,47.45Z" transform="translate(-0.25)"/><path d="M1034.68,15.74c3.71-1,5.3-4.17,8.91-2.49-2.8,2.64-6.81,3.78-7.06,8.36,3.83.51,7.79.88,11.28,2.85,1.09.61,2.85,1.06,2.18,2.77s-2.28,1-3.53.75c-2.5-.44-4.9-2-8.35-.65,9.41,3.79,15.06,10.45,19.07,18.71.61,1.26,2.34,2.65.67,3.9s-2.72-.72-3.69-1.66c-5.21-5-11.6-8.36-17.5-12.39a5.46,5.46,0,0,0-4.22-1.28c-.82,2,0,4,.48,5.82,3.08,12,4.18,24.21,5,36.51.9,12.76-.13,25.62,1.77,38.32.56,3.72-2.5,4.55-4.44,4.78-2.9.35-2.26-2.5-2.08-4.37,2-21,1.28-41.84-1-62.72-.51-4.65-2-9.05-3.46-13.7-2.2.54-2,4.36-4.69,3.53-1.2-.36-1.29-1.78-1.26-3,.06-2.08,2-3.84,1-6.46a40.1,40.1,0,0,0-10.7,13.06c-1.09,2-2.07,4.1-4.87,2.56-3-1.66-1.21-3.83-.19-5.51,4.07-6.77,9.68-12.17,15.93-17.06-.9-2.09-2.88-1.71-4.25-1.47-5.21.92-10.68-1.05-15.73,1.57-1.42.74-2.36,0-1.92-1.63.72-2.58,1.5-5.06,5-5.23,4.5-.21,9-.56,13.44.33,3.84.77,6.27,0,7.59-4.12,1.81-5.65,6.38-9.68,9.48-14.59.44-.7,1.89-1.38,1.92-1.19.64,4.32,5.53,3,7.27,5.51,1,1.41-.35,2.31-1.62,2.14C1039.51,6.91,1038,11.3,1034.68,15.74Z" transform="translate(-0.25)"/><path d="M948.42,61.6c-2.68,1.48-2.82,3.84-3.82,5.64-.5.9-1,1.82-2.28,1.33a1.74,1.74,0,0,1-.92-2.11c.49-2.4,1.13-4.78,1.83-7.68-4.58,2.25-6.9,6.3-9.91,9.6-.82.91-1.45,2.86-3,1.87s-.68-2.81.2-4a58,58,0,0,1,11.69-12.2c1.26-.94,3.08-1.4,3.52-3.56-4.84-2.46-9.74-.18-14.56-.23-1,0-2,.5-2.93.5-1.31,0-2.9-.06-3.09-1.79s1.39-2.34,2.63-2.43c4.79-.36,9.64-.93,14.41-.56,5,.39,4.45-1.3,2.65-4.56A15.71,15.71,0,0,0,940,35.86a1.53,1.53,0,0,1-.58-2.16c.56-.86,1.43-.61,2.23-.29,3.31,1.3,5.33,3.77,6.75,7,.77,1.72.88,4.56,3,4.68,1.82.11,2.1-2.67,3.15-4.1,3.22-4.41,5.78-9.38,10.35-12.67,1-.73,2.4-2,3.5-.69s-.73,1.88-1.49,2.53c-1.8,1.54-1.45,2,.5,3.41s2.41,4.1-.78,5.53c-3.45,1.54-5.88,4.11-8.06,7.72,4.59.86,8.76,1.58,12.9,2.44,1.6.33,3.83.92,3.39,2.86s-2.46.66-3.81.47a27.6,27.6,0,0,0-8.52-.31c2.52,2.06,5.09,4.06,7.55,6.2a23.86,23.86,0,0,1,3.4,3.63c1.68,2.21,4.39,5.42,2.15,7.32-2.62,2.22-3.53-2.24-5.24-3.68-3.43-2.88-6.63-6-10.07-8.93-1.46-1.22-3.09-3-5.26-2-2.43,1.13-1.35,3.56-1.11,5.37,1.37,10.2,3.64,20.31,2.74,30.72a65.51,65.51,0,0,0,2.73,26.09c.47,1.45.86,3-1.2,3.69-1.85.57-3.12,2.95-5.34,2.1s-1.29-2.83-1.25-4.39a393.57,393.57,0,0,0-2.41-51.26C949.07,65.34,948.73,63.62,948.42,61.6Z" transform="translate(-0.25)"/><path class="cls-2" d="M1312.36,113c-2,6.35-5.85,10.3-11.95,12.07-17.89,5.21-34.54,13.77-52.21,19.56a18.74,18.74,0,0,1-3.33,1c-4.14.53-8.38.13-10.8-3.49s-1-7.37,1.29-10.71c1.22-1.74,2.78-3.16,1.29-5.74-1.26-2.19.94-3.27,2.47-3.17,9,.58,16-4.9,24-7.25,11.93-3.52,22.79-10.09,35.27-12.11,3.85-.62,7.59.14,11.41-.14,2.92-.21,4.62,4.75,3.24,8.5A13,13,0,0,1,1312.36,113Zm-2.93-5.18c-7.64-3.61-14.78-1.84-21.79.7s-13.73,5.8-20.94,8c-6,1.8-11.76,4.74-18.21,7.43,1.57,1,2.42,1.53,3.2,2.12,1.54,1.16,3.54,2,2.81,4.65-.64,2.36-1.84,3.56-4.42,3.79a11.38,11.38,0,0,0-5.1,1.89c-2.06,1.38-6.51,2-5.55,4.54,1.35,3.59,5.29,2,8.33,1,18.48-6,36-14.55,54.63-20.12,3.57-1.07,5.12-4.07,6.74-6.95.59-1.06,1.51-2.55.31-3.64-1-.86-2.21,0-3.26.44-3.09,1.14-5.85,3.47-10.74,2.83ZM1245.63,133a4.23,4.23,0,0,0,0-1.2,3,3,0,0,0-3.18-1.9c-3.06.07-4.65,2.27-6,4.63a3,3,0,0,0,0,3.31,1,1,0,0,0,.88.25A27.52,27.52,0,0,0,1245.63,133Z" transform="translate(-0.25)"/><path class="cls-2" d="M1258.7,129c7.54-7.56,17.7-8.78,27.25-11.53C1277.75,123.43,1266.85,122.89,1258.7,129Z" transform="translate(-0.25)"/><path d="M843.7,127.78c0-3.34,0-6.67,0-10,0-1.23.13-2.63-1.58-2.8s-2.29,1-2.58,2.47c-.92,4.58-1.83,9.16-2.8,13.73a33.44,33.44,0,0,1-1.19,4.16c-.42,1.17-1.07,2.4-2.57,2.12s-1.45-1.74-1.36-3a99.3,99.3,0,0,1,2.68-15.1c.87-3.74.91-3.7-2.7-3.1-5.7.95-11.38,2.07-17.2,2.17-4.51.07-5.67-1.6-3.57-5.66,3.61-7,9.53-11.35,16.71-14,9.53-3.46,9.09-3.44,11.74-13,1.64-5.88,0-11.37.08-17s1.42-11,1.56-16.59a2.42,2.42,0,0,1,2.88-2.52c1.93.3,1.48,1.85,1.24,3.18-.74,4.08-.59,8.21-.63,12.32,0,1-.22,2.48,1.37,2.61s1.39-1.37,1.62-2.38c.66-2.92.33-6,1.72-8.79.52-1,.91-2.59,2.49-2.23,1.73.39,1.71,2,1.34,3.28-1.88,6.6-1,13.57-3.29,20.23-1.25,3.66-.14,8.14,0,12.24.06,1.52,1,1.59,2.36,1.21,5.14-1.44,10.32-2.72,15.49-4.07a3.8,3.8,0,0,0,1.56-.54c2.4-2.18,4.9-2.72,7.21-.13a7,7,0,0,1-.35,9.22c-2.83,3-5.88,5.75-10,6.93A78.67,78.67,0,0,0,852.68,108c-1.3.64-2.33,1.3-2.28,2.91,0,.11,0,.26-.06.33-5.24,5.13-1.34,11.22-1.74,16.86-.06.88.19,1.78.14,2.66-.07,1.29.19,3-1.57,3.25-1.51.24-2.32-1-2.94-2.28A6.89,6.89,0,0,1,843.7,127.78Zm-30.24-11.73c10.92.49,21.4-1.32,31.1-6.23a152.4,152.4,0,0,1,21.36-8.77,20.47,20.47,0,0,0,9.29-6.79c.68-.83,1.26-2.14.43-3.08s-1.8.13-2.67.48a24.44,24.44,0,0,1-4.33,1.73c-7.22,1.27-13.56,4.88-20.25,7.54-5.18,2.06-10.28,4.32-15.42,6.5a3.05,3.05,0,0,1,2.59-2.6c3.36-.68,4-2.61,3.6-5.76-.26-2.2-.94-2.41-2.67-1.74-3.81,1.5-7.67,2.92-11.44,4.53-1,.43-2.31.82-2.7,2.16,5.27,3.68,5.13,5.55-.72,8.46C819,113.8,816.19,114.87,813.46,116.05Zm35.34-21.9c-4.09.18-5.35,1.82-5.11,5.37.1,1.51.48,2,2,1.2,3.39-1.64,7-2.81,10.3-4.66,5.31-3,11.46-3.48,16.87-6,.83-.4,2.27-.74,1.83-2s-2-1.09-2.92-.59c-3.29,1.88-7,1.9-10.54,3C856.83,91.78,852.39,93.09,848.8,94.15Zm-6.39-14.62c3,1.62,2.74,4,2.55,6.31-.12,1.54-.45,3.06-.58,4.6-.07.83-.36,2,.85,2.18s1.6-.92,1.74-1.94c.47-3.2-.24-6.38-.22-9.58S845.2,78,842.41,79.53Zm-29.86,34.79a25.48,25.48,0,0,0,7.07-2.37c1.84-.79,1.36-2.06.54-3.24s-2.06-2.47-3.5-1C815,109.53,813.07,111.33,812.55,114.32Z" transform="translate(-0.25)"/></g></g></svg>